<svg width="512" height="512" viewBox="0 0 512 512" fill="none" xmlns="http://www.w3.org/2000/svg">
    <path d="M451.449 168.599C447.967 162.061 441.204 158 433.797 158H376.987C372.244 131.325 348.9 111 320.883 111C292.866 111 269.522 131.325 264.779 158H207.224C211.738 151.092 214.374 142.85 214.374 134C214.374 109.738 194.636 90 170.374 90C146.112 90 126.374 109.738 126.374 134C126.374 142.85 129.01 151.092 133.524 158H86.598C79.191 158 72.428 162.061 68.946 168.599C65.465 175.136 65.869 183.015 70.002 189.161L204.198 388.717V502C204.198 505.372 205.897 508.517 208.718 510.364C210.371 511.447 212.28 512 214.199 512C215.553 512 216.912 511.725 218.191 511.168L310.191 471.105C313.839 469.516 316.198 465.916 316.198 461.937V388.716L450.393 189.16C454.526 183.015 454.931 175.136 451.449 168.599ZM320.883 131C337.82 131 352.124 142.443 356.499 158H285.268C289.642 142.443 303.947 131 320.883 131ZM170.375 110C183.608 110 194.375 120.767 194.375 134C194.375 147.233 183.608 158 170.375 158C157.142 158 146.375 147.233 146.375 134C146.375 120.767 157.142 110 170.375 110ZM297.899 380.086C296.79 381.735 296.197 383.678 296.197 385.666V455.385L224.197 486.738V395.666H260.324C265.847 395.666 270.324 391.189 270.324 385.666C270.324 380.143 265.847 375.666 260.324 375.666H219.523L118.88 226H320.883C326.406 226 330.883 221.523 330.883 216C330.883 210.477 326.406 206 320.883 206H105.431L86.602 178H433.796L297.899 380.086Z" fill="#5352ED"/>
    <path d="M294.324 0C270.062 0 250.324 19.738 250.324 44C250.324 68.262 270.063 88 294.324 88C318.586 88 338.324 68.262 338.324 44C338.324 19.738 318.586 0 294.324 0ZM294.324 68C281.091 68 270.324 57.233 270.324 44C270.324 30.767 281.091 20 294.324 20C307.557 20 318.324 30.767 318.324 44C318.324 57.233 307.557 68 294.324 68Z" fill="#5352ED"/>
    <path d="M401.197 48.333C395.674 48.333 391.197 52.81 391.197 58.333V115.167C391.197 120.691 395.674 125.168 401.197 125.168C406.72 125.168 411.197 120.691 411.197 115.168V58.333C411.197 52.81 406.72 48.333 401.197 48.333Z" fill="#5352ED"/>
    <path d="M408.267 18.43C406.407 16.57 403.827 15.5 401.197 15.5C398.567 15.5 395.987 16.57 394.127 18.43C392.267 20.29 391.197 22.87 391.197 25.5C391.197 28.13 392.267 30.71 394.127 32.57C395.987 34.43 398.567 35.5 401.197 35.5C403.827 35.5 406.407 34.43 408.267 32.57C410.127 30.71 411.197 28.13 411.197 25.5C411.197 22.87 410.127 20.29 408.267 18.43Z" fill="#5352ED"/>
    <path d="M204.375 12.755C198.852 12.755 194.375 17.232 194.375 22.755V63.755C194.375 69.278 198.852 73.755 204.375 73.755C209.898 73.755 214.375 69.278 214.375 63.755V22.755C214.375 17.232 209.898 12.755 204.375 12.755Z" fill="#5352ED"/>
    <path d="M68.197 0C62.674 0 58.197 4.477 58.197 10V75.168C58.197 80.691 62.674 85.168 68.197 85.168C73.72 85.168 78.197 80.691 78.197 75.168V10C78.197 4.477 73.72 0 68.197 0Z" fill="#5352ED"/>
    <path d="M75.267 105.6C73.407 103.73 70.827 102.67 68.197 102.67C65.567 102.67 62.987 103.73 61.127 105.6C59.267 107.46 58.197 110.03 58.197 112.67C58.197 115.3 59.267 117.88 61.127 119.74C62.987 121.6 65.567 122.67 68.197 122.67C70.827 122.67 73.407 121.6 75.267 119.74C77.127 117.88 78.197 115.3 78.197 112.67C78.197 110.03 77.127 107.46 75.267 105.6Z" fill="#5352ED"/>
    <path d="M372.417 208.93C370.557 207.07 367.977 206 365.347 206C362.707 206 360.127 207.07 358.277 208.93C356.407 210.79 355.347 213.37 355.347 216C355.347 218.63 356.407 221.21 358.277 223.07C360.137 224.93 362.707 226 365.347 226C367.977 226 370.547 224.93 372.417 223.07C374.277 221.21 375.347 218.63 375.347 216C375.347 213.37 374.277 210.79 372.417 208.93Z" fill="#5352ED"/>
</svg>
